<?xml version="1.0" encoding="UTF-8"?>
<svg width="677px" height="153px" viewBox="0 0 677 153" version="1.1" xmlns="http://www.w3.org/2000/svg" xmlns:xlink="http://www.w3.org/1999/xlink">
    <!-- Generator: Sketch 53.2 (72643) - https://sketchapp.com -->
    <title>Group 2 Copy 2</title>
    <desc>Created with Sketch.</desc>
    <g id="Page-1" stroke="none" stroke-width="1" fill="none" fill-rule="evenodd">
        <g id="Group-2-Copy-2" transform="translate(-35.000000, -34.000000)">
            <g id="Group" transform="translate(207.199988, 34.399998)" fill="#FFFFFF" font-family="Raleway-Bold, Raleway" font-size="83.8399963" font-weight="bold" letter-spacing="1.09697211" line-spacing="74.5599931">
                <text id="Global-River-Center">
                    <tspan x="0" y="79.0000061" fill-opacity="0.684810915">Global</tspan>
                    <tspan x="289.54182" y="89.8246775"></tspan>
                    <tspan x="0" y="153.559999">River Center</tspan>
                </text>
            </g>
            <g id="Group-30-Copy-2" transform="translate(110.399993, 110.399993) scale(1, -1) rotate(-120.000000) translate(-110.399993, -110.399993) translate(29.599998, 29.599998)" fill-rule="nonzero">
                <g id="Group-29-Copy-2" transform="translate(80.526128, 80.582832) rotate(91.000000) translate(-80.526128, -80.582832) translate(1.326133, 2.182836)">
                    <path d="M107.121481,47.4453047 C95.8011237,21.7713457 84.3080017,13.0310913 69.431187,2.95067017 C25.6873248,10.3730094 0.0256990736,47.0432533 2.34458199,83.7677502 C29.9024785,33.1162872 86.6492618,36.2557319 107.121481,47.4453047 Z" id="Path-11-Copy-3" fill="#FFDB29" transform="translate(54.660609, 43.359210) rotate(-3.000000) translate(-54.660609, -43.359210) "></path>
                    <path d="M156.308954,116.222193 C144.988597,90.5482346 133.495475,81.8079802 118.61866,71.727559 C74.8747978,79.1498982 49.213172,115.820142 51.5320549,152.544639 C79.0899515,101.893176 135.836735,105.032621 156.308954,116.222193 Z" id="Path-11-Copy-4" fill="#EE2029" transform="translate(103.848082, 112.136099) scale(-1, -1) rotate(-3.000000) translate(-103.848082, -112.136099) "></path>
                </g>
                <path d="M109.945514,48.1070593 C101.18825,33.3660933 96.7707169,21.548351 70.7914329,7.28371966 C29.3833647,13.8108334 2.03250739,48.4363281 4.3513903,85.1608249 C31.9092868,34.509362 94.4727124,40.0779478 109.945514,48.1070593 Z" id="Path-11-Copy-8" fill="#234099"></path>
                <path d="M158.47402,116.118557 C149.716756,101.377591 145.299223,89.559849 119.319939,75.2952177 C77.9118707,81.8223314 50.5610134,116.447826 52.8798963,153.172323 C80.4377928,102.52086 143.001218,108.089446 158.47402,116.118557 Z" id="Path-11-Copy-9" fill="#26B54C" transform="translate(105.608522, 114.233770) scale(-1, -1) translate(-105.608522, -114.233770) "></path>
            </g>
        </g>
    </g>
</svg>